:FULLY-SPECIFIED
:FORCE-ALL-JOINTS-BE-3DOF
:DEGREES
2956
root -6.02541 13.1201 -28.7236 1243.34 -66.8724 -160.259
lfemur -68.1887 40.0702 -6.88701
ltibia 77.2685 0 0
lfoot -5.29722 -2.49214 0
ltoes -35.0804 0 0
rfemur -34.5481 -18.034 22.6006
rtibia 90.9926 0 0
rfoot -40.4059 -31.5114 0
rtoes -12.8895 0 0
lowerback 16.4481 5.27999 1.30711
upperback -4.44151 7.58817 1.47335
thorax -14.2848 3.4576 -1.23407
lowerneck -3.0137 9.63806 1.53342
upperneck 8.09324 12.6596 1.43597
head 3.11967 6.35756 0.663408
lclavicle -3.84817e-14 -2.41563e-14 0
lhumerus 5.83572 15.1754 81.4735
lradius 90.0485 0 0
lwrist -14.4348 0 0
lhand -39.3692 391.459 0
lfingers 7.12502 0 0
lthumb -11.4955 -661.234 0
rclavicle -1.47524e-14 -6.69979e-15 0
rhumerus -56.0557 50.6442 -108.469
rradius 109.826 0 0
rwrist -79.2088 0 0
rhand 4.9014 -385.823 0
rfingers 7.12502 0 0
rthumb 28.3512 308.437 0
2957
root -6.01125 13.1197 -28.7231 1243.44 -67.0645 -160.25
lfemur -68.2169 39.7638 -6.91382
ltibia 77.1957 0 0
lfoot -4.73127 -2.29801 0
ltoes -34.8708 0 0
rfemur -34.6494 -17.7338 22.9565
rtibia 91.0338 0 0
rfoot -40.3759 -31.615 0
rtoes -12.8607 0 0
lowerback 16.4794 5.21258 1.27436
upperback -4.41958 7.49056 1.47694
thorax -14.2838 3.4156 -1.18666
lowerneck -3.03087 9.65324 1.52379
upperneck 7.92965 12.6929 1.31392
head 3.07488 6.37059 0.623052
lclavicle -3.8753e-14 -2.46652e-14 0
lhumerus 5.84962 15.2729 81.3566
lradius 89.9623 0 0
lwrist -14.0007 0 0
lhand -39.3052 391.479 0
lfingers 7.12502 0 0
lthumb -11.3085 -661.072 0
rclavicle -1.81491e-14 -8.30479e-15 0
rhumerus -55.9431 50.6176 -108.35
rradius 109.349 0 0
rwrist -79.0388 0 0
rhand 4.16663 -385.924 0
rfingers 7.12502 0 0
rthumb 28.0646 308.49 0
2958
root -5.99713 13.1227 -28.7251 1243.62 -67.1371 -160.424
lfemur -68.245 39.4574 -6.94064
ltibia 77.123 0 0
lfoot -4.16532 -2.10387 0
ltoes -34.6612 0 0
rfemur -34.7506 -17.4337 23.3123
rtibia 91.0749 0 0
rfoot -40.346 -31.7185 0
rtoes -12.5284 0 0
lowerback 16.578 5.1983 1.15298
upperback -4.36371 7.44897 1.50703
thorax -14.299 3.40775 -1.08187
lowerneck -3.06552 9.69301 1.54132
upperneck 7.81088 12.7632 1.10719
head 3.05721 6.39959 0.556967
lclavicle -3.90242e-14 -2.51741e-14 0
lhumerus 5.86353 15.3704 81.2396
lradius 89.8761 0 0
lwrist -13.5665 0 0
lhand -39.2412 391.499 0
lfingers 7.12502 0 0
lthumb -11.1215 -660.91 0
rclavicle -2.15458e-14 -9.90979e-15 0
rhumerus -55.8306 50.5911 -108.231
rradius 108.872 0 0
rwrist -78.8687 0 0
rhand 3.43186 -386.025 0
rfingers 7.12502 0 0
rthumb 27.7779 308.542 0
2959
root -5.9724 13.12 -28.7311 1243.77 -67.3915 -160.476
lfemur -68.2731 39.1511 -6.96745
ltibia 77.0503 0 0
lfoot -3.59936 -1.90974 0
ltoes -34.4516 0 0
rfemur -34.8519 -17.1335 23.6682
rtibia 91.1161 0 0
rfoot -40.316 -31.8221 0
rtoes -12.1962 0 0
lowerback 16.6856 5.14626 1.02155
upperback -4.32295 7.3504 1.50064
thorax -14.3333 3.37199 -0.997305
lowerneck -3.0728 9.69113 1.47583
upperneck 7.55018 12.7739 1.03225
head 2.96999 6.40224 0.534409
lclavicle -3.92954e-14 -2.5683e-14 0
lhumerus 5.87743 15.4679 81.1227
lradius 89.7899 0 0
lwrist -13.1324 0 0
lhand -39.1772 391.519 0
lfingers 7.12502 0 0
lthumb -10.9345 -660.749 0
rclavicle -2.49425e-14 -1.15148e-14 0
rhumerus -53.8448 49.3639 -106.77
rradius 108.395 0 0
rwrist -78.4509 0 0
rhand 2.69709 -386.126 0
rfingers 7.12502 0 0
rthumb 27.4912 308.595 0
2960
root -5.94928 13.1271 -28.7362 1244.06 -67.5794 -160.708
lfemur -68.3013 38.8447 -6.99426
ltibia 76.9776 0 0
lfoot -3.03341 -1.71561 0
ltoes -34.242 0 0
rfemur -34.9532 -16.8333 24.0241
rtibia 91.1573 0 0
rfoot -40.286 -31.9257 0
rtoes -11.8639 0 0
lowerback 16.7665 5.14196 0.909519
upperback -4.26015 7.31648 1.47831
thorax -14.3196 3.36498 -0.955387
lowerneck -3.05061 9.64217 1.42565
upperneck 7.26565 12.7275 0.86386
head 2.87741 6.37404 0.476391
lclavicle -3.95666e-14 -2.61918e-14 0
lhumerus 5.89133 15.5655 81.0057
lradius 89.7037 0 0
lwrist -12.6983 0 0
lhand -39.1132 391.539 0
lfingers 7.12502 0 0
lthumb -10.7475 -660.587 0
rclavicle -2.83392e-14 -1.31198e-14 0
rhumerus -51.859 48.1367 -105.308
rradius 107.918 0 0
rwrist -78.0331 0 0
rhand 1.96233 -386.228 0
rfingers 7.12502 0 0
rthumb 27.2045 308.648 0
2961
root -5.9216 13.1378 -28.7479 1244.26 -67.8229 -160.87
lfemur -68.3294 38.5384 -7.02107
ltibia 76.9048 0 0
lfoot -2.46746 -1.52148 0
ltoes -34.0324 0 0
rfemur -35.0545 -16.5332 24.3799
rtibia 91.1984 0 0
rfoot -40.2561 -32.0292 0
rtoes -11.5317 0 0
lowerback 16.8603 5.12607 0.76568
upperback -4.17683 7.25905 1.45496
thorax -14.2935 3.35008 -0.890414
lowerneck -3.04463 9.60668 1.31749
upperneck 6.98882 12.692 0.825483
head 2.77713 6.3542 0.468704
lclavicle -3.98378e-14 -2.67007e-14 0
lhumerus 5.90523 15.663 80.8888
lradius 89.6176 0 0
lwrist -12.2642 0 0
lhand -39.0492 391.559 0
lfingers 7.12502 0 0
lthumb -10.5605 -660.426 0
rclavicle -2.81615e-14 -1.17888e-14 0
rhumerus -49.8732 46.9095 -103.847
rradius 107.441 0 0
rwrist -77.6152 0 0
rhand 1.22756 -386.329 0
rfingers 7.12502 0 0
rthumb 26.7141 308.365 0
2962
root -5.89301 13.1475 -28.7611 1244.44 -68.0127 -160.945
lfemur -68.3576 38.232 -7.04789
ltibia 76.8321 0 0
lfoot -1.9015 -1.32734 0
ltoes -33.8228 0 0
rfemur -35.1557 -16.233 24.7358
rtibia 91.2396 0 0
rfoot -40.2261 -32.1328 0
rtoes -11.1994 0 0
lowerback 16.8535 5.11722 0.659134
upperback -4.10163 7.21809 1.43621
thorax -14.2116 3.34184 -0.836214
lowerneck -3.02829 9.56378 1.36404
upperneck 6.7351 12.6491 0.614339
head 2.70682 6.32889 0.385329
lclavicle -4.01091e-14 -2.72096e-14 0
lhumerus 6.10883 15.5591 80.7427
lradius 89.5314 0 0
lwrist -11.83 0 0
lhand -38.9852 391.579 0
lfingers 7.12502 0 0
lthumb -10.3735 -660.264 0
rclavicle -2.79838e-14 -1.04578e-14 0
rhumerus -47.8874 45.6823 -102.385
rradius 106.964 0 0
rwrist -77.1974 0 0
rhand 0.492789 -386.43 0
rfingers 7.12502 0 0
rthumb 26.2237 308.081 0
2963
root -5.86017 13.1626 -28.7791 1244.67 -68.1953 -161.067
lfemur -68.3857 37.9256 -7.0747
ltibia 75.2182 0 0
lfoot -1.33555 -1.13321 0
ltoes -33.6132 0 0
rfemur -35.257 -15.9328 25.0917
rtibia 91.2807 0 0
rfoot -39.8419 -32.062 0
rtoes -10.8672 0 0
lowerback 16.8677 5.17811 0.550954
upperback -4.03616 7.27021 1.40693
thorax -14.1529 3.37509 -0.822038
lowerneck -3.02593 9.46037 1.24833
upperneck 6.51787 12.5224 0.563636
head 2.62806 6.26295 0.374819
lclavicle -4.03803e-14 -2.77185e-14 0
lhumerus 6.31243 15.4552 80.5967
lradius 89.4452 0 0
lwrist -11.3959 0 0
lhand -38.9212 391.599 0
lfingers 7.12502 0 0
lthumb -10.1864 -660.103 0
rclavicle -2.7806e-14 -9.12681e-15 0
rhumerus -45.9016 44.4551 -100.924
rradius 106.487 0 0
rwrist -76.7796 0 0
rhand -0.241979 -386.531 0
rfingers 7.12502 0 0
rthumb 25.7332 307.798 0
